#!OML:ASF F:\VICON\USERDATA\INSTALL\rory3\rory3.ASF
:FULLY-SPECIFIED
:DEGREES
64
root -0.18474508893051966 17.924823117154016 26.846220474106065 -3.674670577743912 -0.5741209307921633 -4.636602980575463
lfemur -3.0074722084809347 -1.081472526023704 -15.948566877487586
ltibia 52.687533941280364
lfoot -3.02595638096875 -6.666038367436187
ltoes -3.046827984019616
rfemur -13.632830990240892 4.529713694614966 29.08468958752583
rtibia 35.498107882785575
rfoot -6.691186784248322 -3.989870358157395
rtoes 4.312575742974258
lowerback 9.38684947355629 0.31314408608417055 2.64492845670489
upperback 0.3621405009106318 0.004330453408155743 2.0443329081219366
thorax -4.849376284680296 0.07184883405070597 1.1205336961297931
lowerneck -16.360441315541223 -2.9847552902040757 -2.0103039182663838
upperneck 21.330456240325926 -3.7887627267487995 1.0781362015303206
head 9.261188198229092 -1.7665857516350967 0.32013559590925506
lclavicle -4.5363762403374355e-16 -7.766933327343993e-16
lhumerus -29.949743658777237 1.939329592212189 81.42059449332591
lradius 23.505191371651154
lwrist 6.224587499038591
lhand -27.84742627965245 21.783579493149723
lfingers 7.12502
lthumb -0.6697730811949121 53.317851878947636
rclavicle -4.535503319751206e-16 -7.766258647744515e-16
rhumerus -34.389429919984934 -26.905911069015538 -73.33711140718961
rradius 23.71146916909
rwrist 4.726440829869144
rhand -18.0495177881013 22.809634873776872
rfingers 7.12502
rthumb 7.917289149196798 -7.488563184175959
65
root -0.23719282587547308 17.952262773866074 27.562680889806828 -3.9383394924031876 -1.028186195095928 -5.222735932903578
lfemur -8.803485854184286 0.876770272565258 -15.111635497177517
ltibia 56.56195705452028
lfoot -2.6457355274272314 -6.873905422894738
ltoes -2.4940438795058544
rfemur -10.737658180380055 4.898269328791498 29.955771660569095
rtibia 35.215573121867095
rfoot -7.504208676826048 -3.8602944937900703
rtoes 4.354052546106312
lowerback 9.42784888942155 0.5406553543690785 3.158508842356315
upperback 0.3679737388811888 0.3682753314650447 2.087838935580093
thorax -4.854524529095104 0.24643653993733558 0.8734855686089325
lowerneck -16.363455616889034 -2.9806464276401927 -2.0139107590572753
upperneck 21.385995493545153 -3.78512009223208 1.0930660015044749
head 9.255358614662084 -1.7746887308953647 0.34034328256832574
lclavicle -4.536376240337576e-16 -7.7669333273441e-16
lhumerus -31.113181903187215 2.410801593281567 81.69921577753627
lradius 22.921723879540803
lwrist 5.813323014720048
lhand -27.83582729505002 21.703319561001507
lfingers 7.12502
lthumb -0.7102165711545299 53.1575879797777
rclavicle -4.535503319749091e-16 -7.76625864774288e-16
rhumerus -32.24415675639874 -24.58162707980591 -75.13784376643515
rradius 24.161308565834524
rwrist 4.373164089089943
rhand -18.09658443686517 22.71985455200567
rfingers 7.12502
rthumb 7.935605035308502 -7.4780396180628665
66
root -0.26434522963786233 17.963944275540772 28.491758963502065 -4.01236016022888 -1.617165530802442 -5.616760557223509
lfemur -13.964055507223318 2.77130001361274 -14.435639523629032
ltibia 58.68719718369982
lfoot -2.964818661015258 -6.889294400274249
ltoes -2.864214385124023
rfemur -8.577661396849493 4.975990252071777 30.531086726761714
rtibia 35.20696579736061
rfoot -8.119758813824975 -3.763573724913448
rtoes 4.369970783527908
lowerback 9.471963562242294 0.7482550213476049 3.54630691681509
upperback 0.3636452860474584 0.7264521682971474 2.0689161748423226
thorax -4.894217580511064 0.3963817720207331 0.467729363013773
lowerneck -16.353716548093846 -2.9745973712039198 -2.0123338276729816
upperneck 21.422242873565384 -3.761942200359449 1.129283393725618
head 9.244217842460921 -1.7813435699051428 0.3567709963740444
lclavicle -4.536376240336826e-16 -7.766933327343521e-16
lhumerus -32.124300129676136 2.796296137172642 81.8637043915712
lradius 22.400836134509156
lwrist 5.407074131465093
lhand -27.77765855774361 21.867527697102737
lfingers 7.12502
lthumb -0.6313381115939478 53.42546223972876
rclavicle -4.535503319746644e-16 -7.766258647740988e-16
rhumerus -30.076653842615237 -21.51414321015142 -77.04282038251978
rradius 24.656436198849004
rwrist 4.009762584020981
rhand -18.116093756529544 22.69716860400744
rfingers 7.12502
rthumb 7.970980719143784 -7.415677148617695
67
root -0.27659534680169007 17.956663671307716 29.257788087436158 -3.9073378396675738 -2.3586832238162114 -6.01968140574648
lfemur -18.18075891087222 4.454697238422334 -13.553477813707532
ltibia 58.920385661977875
lfoot -3.2698940847933873 -6.713001812299725
ltoes -2.8348445236542044
rfemur -6.2352765648438595 5.047544571110777 31.353213272474562
rtibia 35.14036726330555
rfoot -8.596990492557508 -3.786033443657006
rtoes 3.6386438250993227
lowerback 9.5122405389657 0.9426935949107438 3.903927697854421
upperback 0.3548736449981065 1.1434396494089984 2.0331327924371028
thorax -4.925658113285495 0.5687258034610799 0.13761593732097915
lowerneck -16.35270556002833 -2.9744251253216487 -2.0278731686860048
upperneck 21.427325655563436 -3.716714874630625 1.152003936559589
head 9.23869957956467 -1.7821544468216992 0.3745887500152446
lclavicle -4.536376240335107e-16 -7.766933327342193e-16
lhumerus -33.118981712409926 3.2006060348348746 81.91938425659204
lradius 21.798173507929953
lwrist 4.920430113792932
lhand -27.72292516598783 21.908468288097215
lfingers 7.12502
lthumb -0.6407717354886013 53.34010425807441
rclavicle -4.535503319745609e-16 -7.766258647740189e-16
rhumerus -28.075202612256575 -18.04838165809753 -78.85274713991966
rradius 25.157610004652543
rwrist 3.635212839571754
rhand -18.116324480480507 22.733507889583272
rfingers 7.12502
rthumb 8.024648184144556 -7.312846243396559
68
root -0.2731359224601998 17.9354734653915 30.182398689387558 -3.5995403971175746 -3.138827546667859 -6.435934702092984
lfemur -22.382926428425222 5.541827045485425 -12.807161217206826
ltibia 57.32536488205828
lfoot -3.4573122478674794 -6.509643782721726
ltoes -3.396160624290177
rfemur -3.7576046973249237 5.0913709098433255 32.25936755041313
rtibia 35.28247079720917
rfoot -8.931759936239974 -3.8086032089839845
rtoes 3.2000279088041856
lowerback 9.569913958343571 1.1568301649858068 4.356746019564695
upperback 0.334202912425061 1.5652524540770303 1.986137370516186
thorax -4.978369457263341 0.7197073832527138 -0.2700798074000471
lowerneck -16.355349465819433 -2.9708514508490587 -2.047320455055312
upperneck 21.417063509584757 -3.6366864663320877 1.1850209381242063
head 9.23687928168299 -1.7737465733471822 0.39834454437907035
lclavicle -4.536376240335133e-16 -7.766933327342213e-16
lhumerus -34.19821428669569 3.7853872856601782 81.82559196745495
lradius 21.163731527465693
lwrist 4.357077723157498
lhand -27.668063741683405 22.041435566237087
lfingers 7.12502
lthumb -0.5745218491187436 53.55396905419895
rclavicle -4.535503319746235e-16 -7.766258647740673e-16
rhumerus -26.328336914483874 -14.858312446824176 -80.27690239526916
rradius 25.581515554609684
rwrist 3.2900675345869446
rhand -18.124204385375748 22.75495269377513
rfingers 7.12502
rthumb 8.064154854850628 -7.257072639787967
69
root -0.2609840663364875 17.90475830441455 31.10291140170447 -3.102736278604419 -3.93172223406704 -6.910027162781933
lfemur -25.82941713796658 5.84966179269748 -12.17634831465229
ltibia 54.18702911457592
lfoot -3.5493171692174124 -6.151148236431387
ltoes -4.237428606666175
rfemur -2.2365868957458375 4.994051226602155 32.823369685842906
rtibia 35.54505169067256
rfoot -8.874770018449357 -3.7151140291306435
rtoes 2.725454590597205
lowerback 9.582791736791288 1.3444367362435319 4.7469102325058685
upperback 0.31122535438382126 2.032851876107208 1.9621299785440853
thorax -4.999968521379365 0.8852634200477144 -0.5790067643280494
lowerneck -16.375465764620166 -2.9713415262939065 -2.0639450066233396
upperneck 21.353094970817494 -3.5640747225283866 1.1798578887956204
head 9.206770411923001 -1.780512719929974 0.37800297385416215
lclavicle -4.5363762403343905e-16 -7.766933327341639e-16
lhumerus -35.21403262678856 4.751146801610478 81.59471429335862
lradius 20.5737189754682
lwrist 3.8712902498138835
lhand -27.667222147430206 21.980131580835796
lfingers 7.12502
lthumb -0.5672432482333338 53.51976697781852
rclavicle -4.535503319746225e-16 -7.766258647740665e-16
rhumerus -24.78291609832609 -12.328722309743426 -81.2785224305204
rradius 25.915190733812334
rwrist 3.0874734612799735
rhand -18.115896589017744 22.789928070372728
rfingers 7.12502
rthumb 8.04672593388339 -7.30183879829902
